<?xml version="1.0" encoding="utf-8"?>
<!-- Generator: Adobe Illustrator 26.0.3, SVG Export Plug-In . SVG Version: 6.00 Build 0)  -->
<svg version="1.0" id="katman_1" xmlns="http://www.w3.org/2000/svg" xmlns:xlink="http://www.w3.org/1999/xlink" x="0px" y="0px"
	 viewBox="0 0 600 450" style="enable-background:new 0 0 600 450;" xml:space="preserve">
<style type="text/css">
	.st0{fill:#01599A;}
	.st1{fill:#58AFE2;}
</style>
<g id="Layer_2">
	<g id="Layer_1-2">
		<polygon class="st0" points="483.1,226.6 496.9,211.2 496.9,246.2 483.1,261.4 483.1,238.1 		"/>
		<polygon class="st0" points="480.1,261.4 466.3,246.2 466.3,235.5 466.3,211.2 480.1,226.6 480.1,238 		"/>
		<path class="st0" d="M481.5,163.4c-36.8,0-63.3,26.5-63.3,63.3c0,30.2,16.6,51.6,45.5,60.6v-77.8l-15.4-17.1v68.6
			c-9.8-8.6-14.5-21.4-14.5-34.3c0-26.4,21.4-47.8,47.8-47.8c26.4,0,47.8,21.4,47.8,47.8c-0.3,12.8-5.3,25.1-14.2,34.3l-0.1-68.4
			l-15.2,16.9v77.7c27.4-8.3,46.7-30.5,46.7-60.6C546.5,189.9,518.4,163.4,481.5,163.4"/>
		<path class="st0" d="M177.8,188h42.5l-3.8,9.8h-28.5v12.4H208v9.8h-19.9v23.5h-10.2V188z"/>
		<path class="st0" d="M228.3,188h42.5l-3.8,9.8h-28.5v12.4h19.9v9.8h-19.9v23.5h-10.2V188z"/>
		<path class="st0" d="M279.7,188h10.2v55.5h-10.2V188z"/>
		<path class="st0" d="M49.3,186.9l24.6,24.9l24.6-24.9v56.7H88.2v-34.3l-14.4,14.9l-14.3-14.9v34.3H49.3V186.9z"/>
		<path class="st0" d="M138.1,187c16.6,0,29.7,12.6,29.7,28.8s-13.2,28.8-29.7,28.8s-29.7-12.6-29.7-28.8S121.5,187,138.1,187z
			 M138.1,235c10.6,0.1,19.2-8.4,19.3-19c0.1-10.6-8.4-19.2-19-19.3s-19.2,8.4-19.3,19c0,0.1,0,0.1,0,0.2
			C119.2,226.3,127.6,234.8,138.1,235z"/>
		<path class="st0" d="M317.4,197.7h-16.2V188h45.2l-3.8,9.8h-14.9v45.8h-10.2L317.4,197.7z"/>
		<path class="st0" d="M371.3,197.7h-16.2V188h45.2l-3.8,9.8h-14.9v45.8h-10.2L371.3,197.7z"/>
		<path class="st1" d="M85.9,257.2h2.5l9.5,22.3h-4.5l-1.7-4.2h-9.4l-1.7,4.2h-4.4L85.9,257.2z M90.3,271.6l-3.2-8l-3.3,8
			L90.3,271.6z"/>
		<path class="st1" d="M68.7,275.4c-2.3,2.9-5.8,4.6-9.5,4.6c-6.4,0.3-11.8-4.7-12.1-11.1c-0.3-6.4,4.7-11.8,11.1-12.1
			c0.3,0,0.6,0,1,0c3.7,0,7.2,1.7,9.5,4.6l-3.5,2.6c-1.3-2-3.6-3.3-6.1-3.2c-4.3,0-7.7,3.4-7.7,7.7s3.4,7.7,7.7,7.7
			c2.4,0,4.7-1.1,6.2-3.1L68.7,275.4z"/>
		<path class="st1" d="M260.1,275.4c-2.3,2.9-5.8,4.6-9.5,4.6c-6.4,0.3-11.8-4.7-12.1-11.1c-0.3-6.4,4.7-11.8,11.1-12.1
			c0.3,0,0.6,0,1,0c3.7,0,7.2,1.6,9.5,4.6l-3.4,2.6c-1.3-2-3.6-3.3-6.1-3.2c-4.3,0-7.7,3.4-7.7,7.7s3.4,7.7,7.7,7.7
			c2.4,0,4.7-1.1,6.2-3.1L260.1,275.4z"/>
		<path class="st1" d="M156,275.4c-2.3,2.9-5.8,4.6-9.5,4.6c-6.4,0.3-11.8-4.7-12.1-11.1c-0.3-6.4,4.7-11.8,11.1-12.1
			c0.3,0,0.6,0,1,0c3.7,0,7.2,1.7,9.5,4.6l-3.4,2.6c-1.4-2-3.6-3.3-6.1-3.2c-4.3,0-7.7,3.4-7.7,7.7s3.4,7.7,7.7,7.7
			c2.4,0,4.7-1.2,6.1-3.1L156,275.4z"/>
		<path class="st1" d="M166.5,257.2h17.1l-1.6,3.9h-11.4v5h8v3.9h-8v5.6h13l-1.5,3.9h-15.6L166.5,257.2z"/>
		<path class="st1" d="M110.4,265.9v13.7h-4.1v-22.8l14.4,14.1v-13.7h4.1V280L110.4,265.9z"/>
		<path class="st1" d="M301.7,265.9v13.7h-4.1v-22.8l14.4,14.1v-13.7h4.1V280L301.7,265.9z"/>
		<path class="st1" d="M193.9,257.2h10.6c4.1-0.3,7.7,2.7,8,6.8c0,0.3,0,0.6,0,0.8c-0.1,3.1-2.2,5.9-5.2,6.7l5.6,7.9h-5.2l-4.7-7h-5
			v7h-4.1V257.2z M198,268.5h6.2c2.1,0.3,3.9-1.2,4.2-3.3c0.3-2.1-1.2-3.9-3.3-4.2c-0.3,0-0.6,0-0.9,0H198V268.5z"/>
		<path class="st1" d="M353.1,257.2h17.1l-1.5,3.9h-11.5v5h8v3.9h-8v5.6h13l-1.5,3.9H353L353.1,257.2z"/>
		<path class="st1" d="M270.5,257.2h17l-1.5,3.9h-11.4v5h8v3.9h-8v5.6h12.9l-1.5,3.9h-15.6L270.5,257.2z"/>
		<path class="st1" d="M380.5,257.2H391c4.1-0.3,7.7,2.7,8,6.8c0,0.3,0,0.6,0,0.8c-0.1,3.1-2.2,5.9-5.2,6.7l5.5,7.9h-5.2l-4.7-7h-5
			v7h-4.1V257.2z M384.6,268.5h6.2c2.1,0.3,3.9-1.2,4.2-3.3c0.3-2.1-1.2-3.9-3.3-4.2c-0.3,0-0.6,0-0.9,0h-6.2V268.5z"/>
		<path class="st1" d="M332.1,261.1h-6.5v-3.9h18.2l-1.5,3.9h-6v18.4h-4.1L332.1,261.1z"/>
		<path class="st0" d="M545.4,274.6h-2.5v3.2h2.4c1.3,0,2-0.5,2-1.6C547.2,275.2,546.5,274.6,545.4,274.6 M546.3,279l2.1,4.1h-1.5
			l-2-3.9h-2v3.9h-1.5v-9.5h3.9c1.5-0.2,2.8,0.8,3,2.3c0,0.2,0,0.3,0,0.5C548.5,277.6,547.6,278.7,546.3,279 M544.6,270.9
			c-4.1,0-7.5,3.3-7.5,7.4c0,4.1,3.3,7.5,7.4,7.5c4.1,0,7.5-3.3,7.5-7.4c0,0,0,0,0-0.1c0.2-4-2.9-7.3-6.9-7.5
			C545,270.9,544.8,270.9,544.6,270.9 M544.6,286.9c-4.7,0-8.6-3.9-8.6-8.6s3.9-8.6,8.6-8.6c4.7,0,8.6,3.8,8.6,8.6
			c0.2,4.6-3.4,8.4-8,8.6C545,286.9,544.8,286.9,544.6,286.9"/>
	</g>
</g>
</svg>
